<svg xmlns="http://www.w3.org/2000/svg" viewBox="0 0 223.71 614.12"><defs><style>.cls-1{fill:#020202;}</style></defs><title>delivered2</title><g id="Livello_2" data-name="Livello 2"><g id="Livello_1-2" data-name="Livello 1"><path class="cls-1" d="M161.77,88.18c-2.28,3.22-5.81,3.9-9.32,4.27a86,86,0,0,1-15,0c-6-.44-9.57-4.17-9.31-9.58.24-5,4-8,9.92-8a44.72,44.72,0,0,1,7.48.74c3.35.55,6.6,1.12,10.16-.07,5.51-1.84,9.73,2.45,9.12,9.64a24.55,24.55,0,0,0,3.45-11A110.18,110.18,0,0,0,167.93,62c-.09-1.61.21-3.81-2.73-3.32-.75.12-1.23-.72-1.5-1.38-1.62-4-4.73-5.41-8.95-5,2.72-4.35,6.78-3.88,12.23,1.31,0-1.55.05-2.93,0-4.3s-.18-2.61.82-3.69c-1.48-.85-2.81-.5-4.07-.48-3,0-6.28.59-5.51-5.19-1.81,2.16-1.18,5.27-4.37,4.67a32.14,32.14,0,0,0-6.44-.21c-2.18,0-4.45.41-5-2.93-.55,2.69-1.66,3.89-4.38,3.61a50,50,0,0,0-13.19.95c-2,.34-2.82-.34-3.16-2.22-.46-2.53-1.07-5-1.74-8.11-3.13,3.66-6.82,6.07-6.33,11.39.22,2.45-1.23,5-1.92,7.57-.41,1.47-1.2,2.89-.24,4.47.47.79,1.09,1.8,0,2.53-.89.57-1.47-.32-2.17-.73-4.92-2.88-10.08-.85-10.68,4.25a8.28,8.28,0,0,0,2.25,6.89,3.36,3.36,0,0,0,4.78.52c.91-.6,2.16-1.37,3.29-.44a2.61,2.61,0,0,1,.55,3.29,1.81,1.81,0,0,0,.16,2.25c6.69,8.42,7.45,18,5.45,28.15a6.78,6.78,0,0,0,0,1.22,12,12,0,0,0,4-5.08,7.67,7.67,0,0,1,2.39-3.09c.56-.39,1.17-.89,1.91-.23s.49,1.41-.06,2.16c-2.5,3.42-4.27,7.4-8.73,9.1-1.52.58-1.63,3.79-4.5,2.76,4.22,11.38,10.71,20.11,22.81,23.22,10.2,2.63,19.22-2.7,21.74-12.8.42-1.65.44-2.89-1.29-4.25-4.33-3.42-5.71-10.71-3.16-15.58,1.16,3.79,1.56,7.59,3.7,10.72.75,1.11,1.44,2.9,2.89.49a1.34,1.34,0,0,1,1.94-.28c6,3.93,13.13,5.31,19.57,8.34C185.59,126,191,131,194.4,138.46c7.48,16.47,14,33.35,18.13,50.89,2.12,9-.39,18.33-4.72,26.81-2.94,5.76-7.6,9.19-13.95,9.87-2.69.28-2.39,1.07-1.71,3,5,14.31,8.29,29,8.86,44.15a57,57,0,0,1-.76,11.8c-.59,3.41-2.22,5.37-5.6,5.92-1.48.24-2.69.55-2.37,2.67,1.6,10.41.42,20.81-.34,31.19-2.89,39.45-4.23,78.94-3.64,118.5.45,31.16,2.28,62.24,5.13,93.26.79,8.59-.19,10-8.79,10.82-3.72.38-4.76,1.63-3.86,5.08.45,1.73.5,3.56.93,5.3.29,1.15.14,2.79,2.12,2.79.36,0,1.07.58,1,.77-.83,3.88,3.2,4.8,4.46,7.39a2.38,2.38,0,0,0,3.31,1.16c1.22-.48,2.94-.82,3.62.42.95,1.74-1.85,1.34-2.12,2.64,2,2.24,4.16,3.53,7.23,2.55,1-.33,2.33-.49,2.85.74.62,1.46-1.21,1.46-1.91,2.5,1.4,1.09,2.6,2.32,4.58,1.1.94-.58,2.12-1.08,2.94-.08,1.05,1.27-.63,1.91-1.22,2.85,5.74,1.84,10.74,4.34,11.78,10.82a25.37,25.37,0,0,0,2.5,8.65c2,3.7.24,6.32-4.19,8.23-11,4.74-22.18,4.85-33.63,1.74-10.63-2.89-21.1-6.07-30.66-11.75-5.29-3.15-6-6-2.4-10.84a2,2,0,0,0,.3-1.88c-1.12-6.15,0-11.81,4-16.69.75-.9.53-1.79.52-2.69a147.35,147.35,0,0,1,1.25-19.35c.12-.91.61-2.17-.69-2.42-3.78-.74-3.58-3.84-3.81-6.45-.88-9.78-1.52-19.58-2.34-29.36-1.78-21.24-4.18-42.41-6.9-63.55-3.4-26.47-6.91-52.93-10.38-79.39-.73-5.58-1.53-11.15-2.14-16.74-.18-1.66-1-3.58-1.89-4-1.44-.69-2.54,1.27-3.58,2.37-4,4.26-6.16,9.58-8.22,15C103.69,402,94.36,441.13,85.9,480.53c-4.32,20.11-8.82,40.17-13.24,60.26a10.68,10.68,0,0,0-.51,2.8c.27,4.18-.23,5-4.42,4.6-2.86-.27-3.62.49-3.48,3.29.17,3.46-.2,6.94-.27,10.42,0,2.44-.55,5,2.49,6.41,1.12.53,1.18,2.22,1.54,3.5,1.74,6.09,1.65,12.43,2.46,18.64a5.75,5.75,0,0,1-3.36,5.92c-12.78,6.11-24.93,13.83-39,16.92C20,615.09,12,613.1,4.31,610.12,1,608.82-.21,605.94,0,602.57A48.91,48.91,0,0,0,.13,594c-.37-3.51,2.19-5.62,4.9-7.36,6.44-4.13,12.81-8.37,19.36-12.32,4-2.43,6.71-5.58,7.78-10.21A19.24,19.24,0,0,1,34.24,560c-.18,4.14.6,8.39-1.49,12.4,3.31.75,6.45,1.44,9.57,2.2.64.15,1.53.32,1.3,1.33s-.92.87-1.69.65c-1.83-.52-3.84-.69-5.48-1.56-4.22-2.23-7-.26-9.66,2.78,1.49.89,3.05.39,4.34.89,1.68.65,5.23.06,4.8,1.61-.61,2.21-3.1-.21-4.82-.32a14.22,14.22,0,0,1-2.42-.59c-4.3-1.06-4.9-.85-8.36,3.11,2.4.15,4.53.13,6.6.46,1.55.25,4.49-.83,4.2,1.75-.27,2.41-3.36,1.26-4.47.72-7-3.35-12.5-.9-17.75,3.62a21.82,21.82,0,0,1-2.17,1.24c-3.43,2.31-3.71,5.55-.65,8.35,3.52,3.21,7.67,4.06,12.32,3.31,7.65-1.22,14.26-5.31,21.49-7.68,7.65-2.51,14.6-7.11,23-7.37,2.1-.07,3.44-1.35,3-3.86-.39-2.23-.48-4.52-.79-6.76-.26-1.86,0-4.63-1.44-5.24-1.79-.76-2.93,1.87-4.33,3.06-4.63,3.92-8.08,2.83-9.34-3-.2-.93-.44-1.86-.72-2.77-2.2-7-7.86-10.07-15.08-8.26a2.22,2.22,0,0,1,2.09-1.71c3.87.12,4.16-2.4,4.31-5.31a14.82,14.82,0,0,1,2.29-7.77c1.14,3.71.69,6.93.68,10.06,0,1.94.24,3.3,2.25,4.28,4.23,2,5.71,6.18,7.09,10.32.46,1.37.15,3.5,2.09,3.73,1.57.19,2-1.76,3-2.67,2.17-2,2-4.71,2.48-7.19.89-4.57,1.48-9.2,2.3-13.79.29-1.66-.07-2.24-1.88-2.46-6.28-.73-12.51-2.54-18.71-2.9-5.51-.32-4-3.06-3.82-5.89,2.63-43.42,7.72-86.58,14-129.6,3.4-23.44,7.6-46.77,11.63-70.11a148.53,148.53,0,0,0,1.74-23.25c.13-10.58,1.26-21,4.78-31.08.56-1.6.85-2.66-1.59-2.65-2.05,0-1.79-1.91-1.78-3.29,0-5.43,1.69-10.61,2.64-15.9,2.29-12.71,5.07-25.33,6.94-38.13.26-1.73.23-2.75-1.6-3.61-4-1.86-6.41-5.17-7.94-9.28-3.68-9.95-5.43-20.32-6.81-30.76-2.07-15.69-3.36-31.42-2.6-47.29.45-9.39,5.12-15.43,13.6-18.74,5.79-2.26,11.89-3.55,17.93-5,1.76-.42,2.89-3.76,1.49-4.89-8.72-7-7.47-16.28-5.36-25.34a20.44,20.44,0,0,0,.07-10C80,47,84.58,26.49,101.24,9.45,108.45,2.08,117.9-.43,128.11.06,137.3.49,145.51,3.75,153,9a7.08,7.08,0,0,0,4,1.14c9.38.49,17,5.49,18.86,13.2,1.69,7.07,1.89,14.28-3.28,20.38a2,2,0,0,0-.24,2.56c9,17.37,6.83,35.18,2.1,53.1-.49,1.85-1,3.71-1.62,5.5-.84,2.28-2.29,3.18-4.22,1.1-2.35-2.52-5.44-2.87-8.5-3.87-4.4-1.44-8.42-.78-12.72-.39a17.58,17.58,0,0,1-13.6-4.3c-.94-.83-3-1.65-1.83-3.29.93-1.27,2.43.06,3.53.62,5.14,2.59,10.47,3.84,16.22,2.66,4.15-.85,9.89-6.07,10.09-9.24.23.16,0,.9.64.54Zm-19.24,117.3.56.15-.24-.43-.36.4c1.21-1.23-.13-2.16-.46-3.12-1.32-3.83-2.72-7.65-2.95-11.72-.12-2.22,1.09-5.12.06-6.5s-4.11-1-6.18-1.9a54.91,54.91,0,0,0-27.76-5c-1.39.13-2.91,1.12-4.33-.06,3-1.62,6.29-1.84,9.56-2.15,10.67-1,20.08,3.26,29.62,7.06,1.71.68,1.2,1.81,1.21,2.87a32.12,32.12,0,0,0,2.24,12.29c3.44,8.14,7.09,16.18,10.57,24.3.64,1.5,1.42,2,3,1.6a57.23,57.23,0,0,1,18.19-.83c5,.43,10,.83,15,.81,4.35,0,9.23-.79,11.68-4.42,6.39-9.43,10.11-19.69,6.7-31.44-5-17.11-10.32-34.06-18.09-50.14-2-4.17-4.77-7.74-9-9.88l-22.18-11.1c-.61,2.7-1.12,5.25-1.78,7.76-2.42,9.26-8.4,14.51-17.9,15.54a23.67,23.67,0,0,1-12.85-2.48c-10.39-4.94-16-13.72-19-24.38-1-3.61-2.76-4.5-6-3.62-9.9,2.7-20,4.87-29.61,8.37-7.91,2.87-11.37,7.78-11.6,16.23a241.28,241.28,0,0,0,1.49,34.42c1.75,15.1,4.12,30.08,8.2,44.76,1,3.71,3,5.48,6.69,6.28,8.26,1.81,16.67,1.19,25,2.1,7.17.77,14.54-.08,21.71,2.57,1.18-5.13,2-10.36,3.65-15.32,1.51-4.55,1.63-8.09-3.28-10.37a1.45,1.45,0,0,1-1-1.39c1.46-1.18,2.47.22,3.43.8A86.27,86.27,0,0,0,142.53,205.48Zm3.29,87.13a195.07,195.07,0,0,0,39.54-3.75c3.33-.66,7.74.37,9.74-3.31,1.77-3.26,1.58-7.19,1.53-10.92,0-.48,0-1,0-1.44-.48-15.12-3.41-29.93-6-44.78-.22-1.29-.6-2.16-2.2-2.23-8.13-.31-16.19-1.64-24.34-1.57a4.31,4.31,0,0,0-3.71,1.46c-3.37,3.77-6.84,3.08-8.88-1.58-1.54-3.5-3.08-7-4.3-10.62-.78-2.29-2-2.52-4-1.93a33.67,33.67,0,0,1-11.68,1.48c-2.6-.17-3.09.92-3.22,3a24.39,24.39,0,0,1-1.49,8.08c-1,2.52-2.84,4-5.6,2.25a7.28,7.28,0,0,0-3.77-.81c-12.62-1-25.34-.81-37.83-3.28-1.75-.35-1.72.57-1.54,1.77A36.73,36.73,0,0,1,78.3,233c-1.3,14.82-5.27,29.18-7.2,43.9-.39,2.95.41,3.89,3,4.65C97.55,288.37,121.36,292.55,145.82,292.61ZM187,571.7c-.85-1.74-1.67-3.33-2.41-5-1-2.26-2.32-3.22-5-2.13-4.05,1.64-7.77,3.55-10.57,7a9.74,9.74,0,0,1-6.53,4c-2.79.33-4.49-1.42-6.62-3.74-.15,2.83-.28,4.95-.38,7.07-.37,8.22.39,9.59,8,12.6a248.73,248.73,0,0,0,32.41,10c5.51,1.36,10.69,1.54,16-.55,4-1.57,5.64-3.9,4.46-7.94-.88-3-2-5.49-5.83-6.69-3.45-1.09-6.53-3.26-10.4-2.85a1.18,1.18,0,0,1-.92-.28c-3.13-4.4-3.12-4.37-7.89-3.13-1.28.34-2.65,1.26-4.15,0l5.51-2.63c-2.41-5.5-6.95-3.07-11-3.18ZM1.47,599.41c1.05,3.5.35,6.81,3.9,8,9.6,3.25,19.34,4.67,29,.54s18.85-8.57,28.27-12.86a7.16,7.16,0,0,0,3.81-3.57c.32-.74.63-2-1.11-1.67-2.21.4-4.55.4-6.64,1.13q-13.14,4.57-26,10C22.47,605.39,12,609.24,1.47,599.41ZM158.2,572.56c4.09,1.17,5.43,1,7.55-1.8a25.4,25.4,0,0,1,11.82-8.93c1.2-.43,1.79-1.06,1.43-2.39-.8-2.93-.61-5.94-.66-8.92,0-1.39-.21-2.32-1.93-2.2a78.59,78.59,0,0,1-14.3-.74c-1.51-.19-2.21,0-2,1.83.88,6.43.25,12.91.56,19.36C160.77,570.45,160.64,571.85,158.2,572.56Zm61.72,27.8c-6.84,5.88-13.93,7.74-22.64,5.53C182,602,166.39,599.09,153,590c-.78,4.16.37,6.35,4.39,8.21a168.31,168.31,0,0,0,22,8.4c11.89,3.58,23.69,6,35.94.81C218.9,605.87,220.75,604.49,219.92,600.36ZM142.46,208.77l-12.08-5.7c-.24,2.11-.33,4.11-.73,6.05s.55,2.2,2.1,1.87ZM155,78.82a6.21,6.21,0,0,1,.54,1.48c-.15,3,2.07,1.86,3.47,1.83.7,0,2.29.55,2-1.07s-1.9-2-3.33-2.12c-3.34-.18-6.7-.22-10-.27-.8,0-1.94-.07-1.75,1.15.16,1-.15,2.24,1,2.88C149,83.93,154,81.87,155,78.82Zm-4.57,5.49c-1.17,1.12-3.64-1.18-3.82,1.57-.11,1.56.06,3.85,2.84,3.39,1.94-.32,4.43.38,4.48-3S151.4,85.48,150.42,84.31Zm-13.2-6.19c-.28,3.63.61,5.5,4.63,5,2.45-.28,2.55-1.65,2.09-3.06C142.67,76.23,139.47,79,137.22,78.12Zm1,6.12c-.33,3.55.29,5.38,4,5.14,2.46-.16,2-1.57,1.79-2.82C143.35,82.49,140.16,85.84,138.23,84.24ZM96.37,32.62c2.65-4.24,4-9.18,7.17-13.16C99,22.71,97.57,27.6,96.37,32.62Zm6.19,69.56c-3.11,2-4.5,4.79-7.28,6.07,2.42.17,5.08.52,7-.48C104.12,106.85,101.94,104.61,102.56,102.18Zm51.17-73.39c.1-4.59-2.92-8.53-6.85-9C150.28,21.73,151.72,25.19,153.73,28.79Zm-1.21-11.15c2.88,1.5,4.39,4.6,7.95,6.89C158.38,20.53,156.09,18.33,152.52,17.64Zm-17,60.76c-2.5,1.22-4.07,2.32-3.55,4.6.23,1,1.54.74,2.17.46C136.37,82.48,135,80.49,135.49,78.4Zm25.16,6c-5.17-.64-5.19-.62-4.37,3.23C158.72,86.68,158.72,86.68,160.65,84.45ZM135.87,88.9c-1-1.93.52-3.54-1.49-4.22-.7-.24-2.27-.65-2.34.61C132,87.05,133.67,87.58,135.87,88.9Zm-37-2c.27-3.09-.07-3.92-2.43-5.79A17.69,17.69,0,0,0,98.88,86.87Z"/><path class="cls-1" d="M156.3,64.55c2.55,1.57,3.26,3.71,1.62,6.28-1.39,2.17-6.2,3.45-8,2.33a1.91,1.91,0,0,1-1.16-2,1.62,1.62,0,0,1,2.14-1.31,7.57,7.57,0,0,0,1.77.2c1.47,0,3.29-.26,3.35-1.91.07-2.17-2-1.4-3.27-1.56-1-.12-2.06.48-3.19-.4a11.15,11.15,0,0,1,6.79-1.53Z"/><path class="cls-1" d="M127.77,61.59c-.81-6.12,2.09-10.68,6.85-12.1a4.05,4.05,0,0,1,4.25,1c1.11,1.12.84,3.21-.62,3C132.26,52.54,129.91,56.41,127.77,61.59Z"/><path class="cls-1" d="M134.94,59.28c3.31,0,4.82,1.71,6.19,3.55a1.59,1.59,0,0,1-.48,2.22,1.62,1.62,0,0,1-2.53-.24c-2-2.81-3.62-2.76-5.3.22-.27.47-.92,1.07-1.45.52a2.45,2.45,0,0,1-.72-1.9A5.52,5.52,0,0,1,134.94,59.28Z"/><path class="cls-1" d="M156.32,64.65c1.24-1.2-.72-2.52.3-4a4.2,4.2,0,0,1,5.89-1.3c2,1.29,3.33,5.1,2.16,6.57a1.92,1.92,0,0,1-1.2.6A1.3,1.3,0,0,1,162,65.31c-.48-4.12-1.74-5.14-4.5-1.29-.2.28-1.17-.56-1.22.53C156.3,64.55,156.32,64.65,156.32,64.65Z"/><path class="cls-1" d="M102.74,64c2.77-1.81,4.86-.9,6.52,1.36a2.28,2.28,0,0,1-.39,3.44,2.13,2.13,0,0,1-3.13-.5C104.64,66.93,103.74,65.42,102.74,64Z"/><path class="cls-1" d="M147.63,182.06c5.44-.13,10.52,1.67,15.75,2.74a107.41,107.41,0,0,0,11.69,1.64c2.21.21,3.19-.44,2.75-3a69.21,69.21,0,0,1,.58-24.22c.24,5.11.45,10.22.74,15.32.15,2.51.56,5,.64,7.5s.29,4.55,3.64,4.09a1.76,1.76,0,0,1,1.43.86c.29.76-.41,1.28-1,1.66a9.21,9.21,0,0,1-4.49,1A53.41,53.41,0,0,1,160,186.49C155.85,185.1,151.75,183.54,147.63,182.06Z"/><path class="cls-1" d="M98.31,178.09c0,2.89,1.21,5.54,1.61,8.35.26,1.87,1.69,2,3.14,2.2a84.78,84.78,0,0,1,16.6,3.85c1.81.6,4.5,1.06,3.59,4.24a130.19,130.19,0,0,0-19.19-6.51c-1.59-.39-3-1.13-4.93.36-1.71,1.33-2.18-1.14-2.42-2.39-1.34-7.15-2.56-14.32-3.82-21.49l-3.4-19.46a5.45,5.45,0,0,1,2.11,3.87q2.93,12.34,5.74,24.73A6,6,0,0,0,98.31,178.09Z"/><path class="cls-1" d="M71.13,153c4.32.44,11,7.85,11.93,13.3C78.6,162.47,75.86,157.13,71.13,153Z"/></g></g></svg>