<svg xmlns="http://www.w3.org/2000/svg" viewBox="0 0 245.61 541.33"><title>preparing2</title><g id="Livello_2" data-name="Livello 2"><g id="Livello_1-2" data-name="Livello 1"><g id="iyfvuj.tif"><path d="M47.58,496.8c1.39-.23,2,.88,2.8,1.66.95,1,1.8,1.54,3.27,1,1.07-.37,2.82-1.06,3.21.48s-1.87.67-2.63,1.8c1.32,1.39,2.47,3,4.87,2.08.76-.29,1.92.07,1.47.79-1.44,2.3.76,2.31,1.68,2.83,4.83,2.75,10.47,3.34,15.44,5.78a35.71,35.71,0,0,1,7.62,4.8c3.32,2.82,4.35,6.73,5.33,10.65.49,1.93-.36,3.05-2.58,3.28a218.25,218.25,0,0,1-32.13.94c-10.49-.41-21-.42-31.47-1.71a89,89,0,0,1-14.12-2.41c-3.58-1-5.8-3.76-3.89-7.19.62-1.11-.13-2-.18-3-.37-6.41.1-12.7,2.81-18.63,1-2.15,1.87-4.44,4.48-5.31,1-.33,1.11-1.44,1.45-2.28,2.59-6.27,3.59-13,5.66-19.44.52-1.64-.49-1.94-1.61-2.36a35.5,35.5,0,0,1-8.54-4.47,2.62,2.62,0,0,1-1-3.72c17.21-36.42,30.07-74.59,44.93-112q9.9-24.92,20.31-49.63c1.9-4.53,2.16-8.26-1.87-11.77-2.27-2-3.78-4.72-5.18-7.39-3.33-6.34-9.75-8.3-15.49-11.24a35.45,35.45,0,0,0-4.37-1.58c-1.62-.57-3.15-3.07-4.85.24-.55,1.05-2.49.47-3.73-.26a15.61,15.61,0,0,1-4.77-4.87c-1.27-1.86-2.43-3.8-3.87-6.07-1,2.81-.22,5.09.49,7.27,2,6.16,4.64,12,8.86,17.06.6.72,1.37,1.44.7,2.47a2.76,2.76,0,0,1-2.75,1.13c-2.23-.26-3.75-1.7-5.06-3.37a96,96,0,0,1-19-40.23A83.2,83.2,0,0,1,12.07,227c0-1.59-.45-2.45-2.14-2.82a22.75,22.75,0,0,1-4.65-1.75,6.6,6.6,0,0,1-4.09-6.1C1,212.08.45,207.84,0,203.59c-.18-1.74.21-2.92,2.3-2.62,1.64.23,1.58-.83,1.54-1.94-1.31-31.66,13.39-56.84,32.6-80.12a103.55,103.55,0,0,1,19.84-18.47,63.57,63.57,0,0,1,15.17-7.87c.75-.27,2.57-.32,1-1.91C66.14,84.42,67.07,76.84,69,69.39a15.16,15.16,0,0,0,.08-8.1Q62.35,35.46,77.9,13.67C89.2-2.17,109-3.24,123.78,5.33c3.15,1.82,6.18,3.39,9.94,3.84,10.25,1.23,16.19,9.38,14.86,19.65-.45,3.43-.89,6.82-3.5,9.43-.74.73-.56,1.44-.15,2.25,7.69,15.14,5.89,30.63,1.69,46.21A36.52,36.52,0,0,1,145,91.76c-.77,1.81-2.12,2.29-3.62.7a9.89,9.89,0,0,0-7.78-3.25,5.61,5.61,0,0,1-3.46-1.28c-1.08-.8-2-.06-2.93.26-1.23.42-.41,1.41-.3,2.13.26,1.64.65,3.26.94,4.89.55,3.13,1.33,6,5,7a4.61,4.61,0,0,1,2.37,2c3.4,5.29,8.49,8.74,13.19,12.68,8.1,6.82,12.74,15.58,12.94,26.33a104.68,104.68,0,0,0,7,36.27c1.73,4.48,3.22,9,1.89,14a1.56,1.56,0,0,0,.13,1.17c4.66,6.1,10.93,8.92,18.52,9a22.77,22.77,0,0,1,5.88.66c.59.16,1.54.31,1.66.69,1.33,4.07,3.65,1.5,5.31.65,5.08-2.61,10-5.54,15-8.26,2.77-1.49,5.71-2.6,8.94-1.89,2.69.59,3.23,2.26,1.31,4.21s-3.88,3.41-6.07,5.31c1.54.87,3,.57,4.33.47,4.46-.32,8.91-.77,13.35-1.27,1.81-.2,3.7-.64,4.67,1.37s-.86,2.92-2,4a6.16,6.16,0,0,0-.55.69c.57.62,1.2.2,1.77.27,1,.13,2.5-1,3,.68s-.64,2.53-1.9,3.23c-.8.45-1.64.84-2.62,1.34,1.2.53,2.35.91,2.2,2.33s-1.22,2.12-2.4,2.63a67.82,67.82,0,0,1-15.9,4.32,76.74,76.74,0,0,1-22.69.68c-1.95-.25-2.93.34-3.84,2.13a34.76,34.76,0,0,1-8.92,10.73c-2.87,2.42-6,3.37-9.54,2-15.74-6-29.2-14.65-35.7-31.58a31,31,0,0,0-1,7c-.13,2.28-.43,4.56-.51,6.85a184.92,184.92,0,0,0,3.62,43.14c.8,3.89,3,7.06,4.95,10.33,4.64,7.67,3.84,13-3.4,18.47-2.06,1.56-2.16,2.59-.93,4.71C156,315,160.69,332.1,163.28,349.82c3,20.23,3.22,40.66,4.4,61,1.29,22.4,3.8,44.59,12.11,65.68,2.64,6.68,1.18,10-6.52,11.75-3.92.88-3.93.94-2.51,4.65.66,1.75,1.44,3.45,2.15,5.18s1.44,3,3.8,2.37c1.52-.43,2.56,1.11,3.83,1.76,3.11,1.61,5.71,5.71,10,1.75-.05,1.69-1.51,1.92-1.68,2.91,2.64,2.38,5.6,2.2,9,.88-1.81,2.15-.65,2.6.93,3.14,6.58,2.25,13.17,4.39,19.12,8.24,4.61,3,7,7.41,9.28,12,1.38,2.75.08,5.19-3.22,6.7-5.52,2.51-11.45,3-17.38,3.26-16.14.65-32.26-.22-48.37-.91-4.57-.2-9.15-.12-13.7-.84a25.56,25.56,0,0,1-6.88-1.92c-3.61-1.66-4-3.73-3-7.51,1.14-4.39,1.5-9,2.26-13.46.42-2.46,1-4.9,1.5-7.33a5.37,5.37,0,0,1,1.35-3.11c5-4.22,2-9.85,2.67-14.83a.85.85,0,0,0-.52-.66c-4.35-.85-4.47-4.83-5.53-7.86a159.58,159.58,0,0,1-7-31.62c-2.34-17.86-3-35.88-5-53.76-2.11-18.38-5.72-36.37-14.34-53-.9-1.72-1.89-3.38-2.89-5.15-1.22.94-1.44,2.1-1.92,3.09-13.59,28.6-23.86,58.48-33.77,88.5-2.68,8.09-5.18,16.25-8.24,24.2s-7.15,15.52-13.5,21.44a7.53,7.53,0,0,0-2.81,5c-.42,3.39-1.26,6.74-1.9,10.11-.11.59-.85,1.7.52,1.53,4-.48,2.54,1.93,2.14,3.82-1.12-1-2.16-.24-3.18.16a38.22,38.22,0,0,0-9.89,5.23c-4.55,3.65-8.8,2.82-13.13-.13-1.38-.94-2.69-2-4-3-3-2.35-5.64-1.55-6.33,2.23-1,5.31-1.77,10.64-1.3,16.11.21,2.53,1.21,3.41,3.6,3.61,5.28.43,10.55,1,15.82,1.63a403.25,403.25,0,0,0,54.5,2.41c.66,0,1.57.32,1.87-.62.25-.79-.39-1.38-.78-2-2.29-3.36-5.81-4.94-9.44-6.29-4.28-1.59-8.71-2.94-12.52-5.49-3.54-2.36-6.8-5.23-9.76.59a1,1,0,0,1-1.62.15c-.52-.54-.26-1.18.17-1.67a20.56,20.56,0,0,1,2.56-2.71c1.45-1.14,1.14-1.86,0-3.12-1.42-1.56-2.43-1.52-3.68,0-1,1.2-2,2.39-3,3.54-.44.47-1,.81-1.61.22a1.06,1.06,0,0,1,.12-1.42,17.39,17.39,0,0,1,2.93-3.62c2.27-1.71,1.68-3.11,0-4.67ZM94.25,95.6c-1.61,2.53-1.79,2.69-2.82,2.52-1.56-.25-1.81-1.5-2.09-2.75-.11-.5-.32-1-.44-1.48-.37-1.6-1.06-1.81-1.87-.34s-1.49,2.16-2.6.43c-.67-1-1.48-.48-2.23-.38a49.88,49.88,0,0,0-23.8,10.18A144.25,144.25,0,0,0,26.2,138c-12.75,18.83-19.52,39.62-19.4,62.5,0,1.73-.1,3.21,2.28,3.58,4.93.77,9.8,1.9,14.72,2.69s5.06.7,7.29-3.75A388.64,388.64,0,0,0,50,159.19c2.92-8.19,5.67-16.45,8.5-24.68a197.38,197.38,0,0,1-7.93,32.32c1.9-1.46,3.19-2.48,4.5-3.46,3.67-2.74,7.19-5.69,11.28-7.81.74-.39,1.85-1.31,2.5-.31s-.71,1.55-1.38,2q-7.48,5.08-15.07,10c-1.16.75-1.82,1.44-1.4,3,3.32,12.26,2.39,24.6,0,36.82-3.33,17.29-6.17,34.61-7.07,52.21-.16,3.17,1.1,5.45,3.77,6.53,10.09,4.09,19,10.29,28.21,15.83C86.55,288,97,294.69,109,298.15s23.66,2.37,34.62-4a17.2,17.2,0,0,0,6.35-5.87c2.06-3.38,2-6.51-.51-9.51a36.28,36.28,0,0,1-6.92-14.17c-5.39-20.65-4.34-41.49-1.65-62.34,2.76-21.35,7.17-42.47,9.22-63.93,0-.52-.1-1.33,1.09-1.27a130.14,130.14,0,0,1-.13,17.44c-1.3,14.31-3.56,28.49-5.89,42.65-1,6.32-.29,11.81,3.39,17.12,8.07,11.66,19.43,18.53,32.57,22.9a5.49,5.49,0,0,0,5.33-.81c4-3,6.78-6.92,9.36-11.15a3.66,3.66,0,0,0-4.61,1.1,36.33,36.33,0,0,1-7,5.72c-1.43.92-2.92,2-4.54.61s-1.11-3-.54-4.63a46.9,46.9,0,0,1,8.09-14.66,90.29,90.29,0,0,1,7.09-6.91c-5-.85-9.46-.93-13.57-2.56-.94-.37-1.43,0-2,.8a37.88,37.88,0,0,0-8,17.37c-.31,1.94,0,5.08-2.81,4.6s-1.75-3.64-1.39-5.56a29.49,29.49,0,0,1,8-14.9c.52-.55,2.09-1.05,1-2.07-2.06-1.92-3.08-4.4-4.3-6.8-.87-1.72-1.9-1.71-2.93,0a10.63,10.63,0,0,1-3.14,3.43c-.65.43-1.34,1.44-2.14.74-1.12-1,.15-1.71.7-2.26,5-5,5.48-10.75,2.9-17-5.43-13.07-7.6-26.73-7.89-40.81a27.26,27.26,0,0,0-6.58-17.76,51.11,51.11,0,0,0-10.45-9.32,18.49,18.49,0,0,1-5.68-6.09c-1.5-2.53-3.28-4.9-6.18-6.2-.41,2.14,1.86,2.62,2.06,4.1.73,5.21.95,10.43-1.51,15.29-3,5.85-8.27,7.36-14.15,4.17a27.63,27.63,0,0,1-7.77-6.68A84.18,84.18,0,0,1,94.25,95.6Zm.84-3.36a8.14,8.14,0,0,0,2.28-3.81c.44-1.05.13-3.15,1.51-2.87,1.61.33.72,2.27.66,3.54a4,4,0,0,1-.5,1.79c-3.27,5.18-.61,9.31,2.32,13.41.85,1.18,1.57,2.46,2.42,3.64,3.75,5.26,7.4,10.6,13,14.18,4.07,2.62,7.43,2.75,10,.37s4.34-10.37,2.94-12.91a1.4,1.4,0,0,0-.67-.6c-2-.88-2.31-2.9-2.71-4.64a45.38,45.38,0,0,1-1.33-12c.11-2.81-.84-3.5-3.55-3.51a15.13,15.13,0,0,1-11.7-4.87c-.5-.55-1-1.18-.53-1.93a1.49,1.49,0,0,1,2-.41c1.24.52,2.41,1.22,3.67,1.68,4.9,1.81,10.11,3,14.69,0,9.11-6,12.4-14.85,11.31-25.57A134,134,0,0,1,140,42.46c0-2.62-.68-3.12-3-3s-5.09.92-4.72-3.83c-1.48,3.68-1.94,4-4.9,3.5-2.08-.38-4.29.26-6.19-.37s-3.12-.8-4.57.63c-.38.37-1.41.09-2.14.09a47.47,47.47,0,0,0-7.14.45c-6,.87-6,.8-7.51-5.16A12.67,12.67,0,0,0,99.19,33c-.24-.61-.86-.82-1.19-.31-1.26,2-3.89,3.11-3.9,5.78a30.23,30.23,0,0,1-1.94,9.38c-.31,1-.82,1.91-.44,3s1.43,2.1.1,3.07c-1.18.85-1.8-.62-2.71-.92-2.47-.83-4.91-1.12-7,.82-1.6,1.47-1.68,5.24-.32,7.62,1.54,2.68,3.61,2.18,5.9,1.11,1.49-.69,2.92.18,2.52,1.56-.82,2.86,1.19,4.37,2.22,6.39a26.7,26.7,0,0,1,3.08,9.39A51.18,51.18,0,0,1,95.09,92.24ZM184,507.84c-6.62-5.88-6.88-5.87-13,.1-.07.07-.15.14-.22.22-4.08,4.63-9.18,5.35-14.79,3.67a62.14,62.14,0,0,1-7.27-2.78,15.28,15.28,0,0,0-4.78-1.28c-1.92-.17-3.15.55-3.3,2.75-.31,4.77-.53,9.56-1.24,14.28-.52,3.46.92,4.61,4,5a259.35,259.35,0,0,0,29.84,2.51,245.12,245.12,0,0,0,46.3-3.32c.77-.14,1.87.46,2.27-.46s-.7-1.61-1.27-2.27a23,23,0,0,0-2.27-2.14c-5.63-4.89-12.54-7.25-19.36-9.78-3.32-1.24-6.73-3.33-9.37,1.12-.05.08-.17.12-.25.18-.63.46-1.36.74-2,.19-.81-.71-.32-1.48.11-2.22.61-1.06,2.11-1.3,2.46-2.6-4-2.47-5.13-2.31-7.92,1.33-.61.8-1,1.81-2,.8s-.61-2,.3-2.7C181.37,509.51,182.72,508.72,184,507.84Zm40.32-309.47c-4-.53-6.44,1.29-8.92,2.71-5.61,3.21-11.21,6.76-17.65,7.56-3.7.46-5.78,2.2-7.78,4.73-1,1.22-1.9,2.47-2.78,3.77-3.22,4.77-3.21,4.83,2.33,5.14,11.61.66,23.24,2.2,34.87.46,5.23-.78,10.51-1.66,15.29-4.19-3.64.21-7.23.62-10.82,1-1,.1-2.57,1-2.72-.79-.12-1.5,1.47-1.45,2.58-1.59a32.71,32.71,0,0,0,10.15-3.37c-2.82,0-4.9,0-7,0-1.08,0-2.29-.19-2.36-1.5-.09-1.51,1.23-1.31,2.25-1.42,2.87-.3,5.21-1.69,7.68-3.62a4.14,4.14,0,0,0-1.2-.2c-6.56,1.67-13.22,1.22-19.87,1-1,0-2.21-.05-2.66-1.21-.58-1.44.73-2,1.56-2.71C219.45,202.34,221.63,200.6,224.36,198.37Zm-184,55.82a124.12,124.12,0,0,1,1.24-19.6c2-14.29,5.89-28.26,7.48-42.62.74-6.66,1.5-13.35.1-20.12A332.26,332.26,0,0,1,33.07,207c.53,1.51,3.84-.32,3,2.38-1.61,5.37-3.35,10.69-4.73,16.12-.26,1-.86,2.18-2,2.11-3-.17-2.16,1.56-1.82,3.21C29.44,239.87,35.2,246.82,40.36,254.19ZM28.08,501.72c4.24-1.57,8.13-4.4,12-7.3a1,1,0,0,0,.28-.54c1.42-4.77,2.81-9.55,4.27-14.3.41-1.34.11-1.92-1.33-2.06a73.4,73.4,0,0,1-16.93-3.83c-1.05-.36-1.93-.44-2.16.82-1.2,6.56-4.66,12.45-5.55,19.08-.14,1-.58,2.29.18,3A17.57,17.57,0,0,0,28.08,501.72ZM41.21,267.1a3.57,3.57,0,0,0,.3-3.05,29.61,29.61,0,0,0-5.1-10.93c-3.83-5.44-8.56-10.64-9.77-17.23-1.12-6.12-4.3-8.66-9.87-9.4a1,1,0,0,1-.29-.09c-1.89-.7-2.64-.46-2.16,1.88A196.19,196.19,0,0,0,21,253.85a72.71,72.71,0,0,0,11.7,21.89,18.62,18.62,0,0,0-1.14-2.85,37.82,37.82,0,0,1-3.72-13.42c-.11-2,.6-3.86,2.73-4.44s2.14,1.55,2.8,2.67C35.46,261.19,37.53,264.65,41.21,267.1Zm119,242.56c4.5-.08,7.44-2.66,10.22-5.56.84-.88.39-1.71.09-2.58a48.73,48.73,0,0,1-2.61-9.27c-.22-1.54-1-2.44-2.74-2.11-6,1.12-12.12,1.68-18.25.63-1.55-.27-2.37.27-2,2.07a59.8,59.8,0,0,1,1,10.52c0,.95,0,2,1.09,2.35C151.38,507.11,155.58,509.32,160.17,509.66ZM34.32,209.91c-10.11-.24-19.17-2.49-28.15-5.11-1-.29-2.55-.61-2.51-1.41s1.15-1.53-.72-1.22c-1.34.22-1.28.9-1,2,.84,4.06,1.57,8.15,2.35,12.23a3.72,3.72,0,0,0,2.25,3.14A119.51,119.51,0,0,0,25,224.81c1,.2,2.09.29,2.5-1.13A49,49,0,0,1,34.32,209.91ZM181.14,537.59q13.28.48,26.52-.33c4.86-.3,9.8-.32,14.44-2.16,1-.4,2.42-.76,1.94-2.3s-1.81-1.43-3.1-1a66.28,66.28,0,0,1-11.89,2.47,226.17,226.17,0,0,1-48.59.4c-6.82-.64-13.64-1.57-20-4.37-1.43-.63-3.09-1.16-3.87.22-.88,1.56.41,3,1.83,3.82,2.1,1.28,4.51,1.51,6.88,1.75C157.22,537.25,169.19,537.36,181.14,537.59ZM62.87,529.66c7.47,0,14.95,0,22.43,0,.84,0,2.29.36,2.32-.86s-1.34-.94-2.23-.89a244.65,244.65,0,0,1-34.88-.61C37.29,526.07,24,525.53,11.07,522c-.81-.22-2-.9-2.25.58-.2,1.26-.54,2.83,1,3.58a9.61,9.61,0,0,0,2.7.65C29.21,529.45,46,530.07,62.87,529.66ZM84.49,17.52C81.32,20.23,80,24,78.94,27.86,80.63,24.35,81.85,20.58,84.49,17.52ZM128.34,24c-1.18-3.87-2.36-5.29-5.67-6.65C125.58,19.2,127,21.58,128.34,24Zm4.8-3.76c-1.11-2-2.55-3.76-4.95-4.38C130.05,17,131.44,18.76,133.14,20.2Z"/><path d="M57.47,204.68c2.38,5,4.72,9.71,6.9,14.5,3.74,8.23,7.22,16.6,12.43,24.06,1.61,2.29,3.49,4.39,5.2,6.61.51.67,1.68,1.38.64,2.34-.83.76-1.52-.21-2.14-.66a29.8,29.8,0,0,1-8.85-11.14,325.23,325.23,0,0,1-14.28-33.52A2,2,0,0,1,57.47,204.68Z"/><path d="M59.15,177.72c8.82,19.35,16.67,39.22,31.52,55.09C73.84,218.05,66.22,198,59.15,177.72Z"/><path d="M17,179.54c.43,2,1.89,2.61,3,4-2.52-1-5.61-1.88-5-4.57.71-3,3.76-1.4,5.87-1.06,4.08.66,7.92,2.42,12.1,2.72.58,0,1.35.23,1.43,1,.09,1-.85,1.07-1.49,1.27-1.58.49-3.08-.11-4.57-.54A84.21,84.21,0,0,0,17,179.54Z"/><path d="M148.75,197.33c2.46-3.6,5.28-6.85,9.21-8.92.73-.39,1.65-.93,2.27-.14s-.22,1.53-.82,2A55.88,55.88,0,0,1,148.75,197.33Z"/><path d="M77.27,189.11a62.75,62.75,0,0,1,9,14.34C82.25,199.31,79.83,194.15,77.27,189.11Z"/><path d="M125.9,76.14a8.43,8.43,0,0,1-5.69-2.53c-.76-.74-1.26-1.74-.32-2.74a1.83,1.83,0,0,1,2.77-.1c2.44,2.49,4.74,1.83,7.12,0,.53-.42,1.09-1.07,1.88-.37s.22,1.3-.06,1.94C130.5,74.91,128.29,75.81,125.9,76.14Z"/><path d="M127.34,65.7a7.81,7.81,0,0,1-4.63-2.1c-.5-.49-1-1.13-.45-1.92a1.46,1.46,0,0,1,2.15-.47,15.16,15.16,0,0,1,1.59.95c1,.69,2.16,1.05,3-.15.72-1,.36-2.12-.47-3.1-.53-.62-2.13-1.06-1.2-2s2.29-.39,3.29.49a4.27,4.27,0,0,1,1.26,5C131.11,64.47,129.5,65.4,127.34,65.7Z"/><path d="M106.16,47.49c1.7-4.24,5.21-5.71,9.17-6.44a2.06,2.06,0,0,1,2.48,1.4,1.49,1.49,0,0,1-1.35,2A32.64,32.64,0,0,0,106.16,47.49Z"/><path d="M131.79,40.55c2.73.67,5.43,1.38,7.23,3.78.35.47.86,1,.39,1.65a1.09,1.09,0,0,1-1.42.19c-2.2-1.24-4.69-1.52-7-2.26-1.11-.35-1.88-1.12-1.45-2.32A1.77,1.77,0,0,1,131.79,40.55Z"/><path d="M86.27,54.62c2.29.35,3.88,1.36,4.16,3.63a2,2,0,0,1-2,2.33c-1.08.13-4.31-3.14-4.33-4.45C84.13,54.56,85.58,55.06,86.27,54.62Z"/><path d="M115.31,50.79c-.48,1.54-.07,3.94-2.52,4.21-2,.22-1.62-1.67-1.69-2.94-.09-1.83,0-3.73,2.32-4C115.16,47.85,115.13,49.42,115.31,50.79Z"/><path d="M136.91,51.17c-.46,1.43-.31,3.42-2.52,3.26s-2.13-1.86-2.1-3.44.66-2.75,2.25-2.75C136.34,48.23,136.87,49.61,136.91,51.17Z"/></g></g></g></svg>