<svg xmlns="http://www.w3.org/2000/svg" viewBox="0 0 548.63 530.76"><title>shipped2</title><g id="Livello_2" data-name="Livello 2"><g id="Livello_1-2" data-name="Livello 1"><g id="HOW85t.tif"><path d="M79.14,309.46a72,72,0,0,1-8.21-1c-3.34-.8-6.14-2.34-6.09-6.27,0-2.08-1.22-1.6-2.29-1.6-5.21,0-10.43,0-15.64,0a15,15,0,0,1-6.35-.85c.66,3.67,1.13,6.92,1.88,10.1.49,2.08-.2,3-2.13,3.71-5.33,1.87-9.46-.17-11-5.56-.92-3.22-.92-6.56-1.32-9.84-.23-2,.64-2.78,2.58-2.94,3.24-.27,6.46-.41,8.94-3.28,1.34-1.54,3.78-1.23,5.76-1.26,27.73-.47,55.46-1.75,83.2-.84,16.74.54,32.93,3.69,47.52,12.59a21.08,21.08,0,0,1,4.68,3.18c3,3.23,8.11,2.7,10.85,6.28a1.15,1.15,0,0,0,.94.23c2-.43,6.29-7,5.87-9-1-5.1-2.28-10.16-3.26-15.27-.35-1.8-1.17-2.34-2.87-2.23-2.59.16-5.19-.07-7.77.59a7.57,7.57,0,0,0-5.21,3.82c-2.27,4.11-6,4.68-9.28,1.45-1.42-1.39-2.69-2.41-4.85-2.29-2.61.14-2.58-2.32-2.69-3.85-.27-3.84-2.55-5-5.84-5.18a23,23,0,0,1-3.52-.39c-5.31-1.19-7.86-5.57-6.22-10.75,1.69-5.37,5.55-8.66,10.83-10.71-3.61-4.73-4.54-10.25-6.19-15.65-3.91-12.83,3.36-23.13,6.36-34.34,1.53-5.74,4.4-11.28,7.44-16.45,9-15.29,14.56-31.75,18.23-49a48.38,48.38,0,0,0,1-15.37,53.1,53.1,0,0,1,3.15-25.15c3.09-7.82,8.52-13.24,16.57-15.93,3.37-1.12,3.5-1.67,1.15-4.2-5-5.45-4.79-12-3-18.35a18.52,18.52,0,0,0-.13-9.61c-3.59-15.54-.67-29.89,9-42.54s26-15.17,40.91-6.91a28.57,28.57,0,0,0,9.64,3.66c12.32,2,17.51,15.69,10.18,26.06a2.34,2.34,0,0,0-.23,2.85c6.2,12.24,5.26,25,2.32,37.75-.6,2.65-1.43,5.24-2.24,7.84-.66,2.15-1.69,2.47-3.61,1-4.35-3.39-9.33-4.2-14.76-3.25A15.08,15.08,0,0,1,240,76.74c-.66-.61-1.69-1.31-.85-2.34.72-.87,1.79-.48,2.63,0a23.15,23.15,0,0,0,7.31,2.56c8.05,1.29,13.54-4.43,16.73-11,2.13-4.4,2.32-9.11,2-13.85-.29-4.48-.9-8.94-1.12-13.42-.09-2-.7-2.65-2.69-2.53s-4.3.58-4.35-3c-.36,2.17-1.27,2.62-3.15,2.46-7.06-.63-14.06.35-21.05,1.2-2.58.32-4.36.07-4.71-3.09-.15-1.3-.19-2.87-1.36-4-2.62,2.44-4.9,4.81-4.49,8.94.32,3.13-2.36,5.9-1.28,9.53.48,1.62-1.65,1-2.82.27a4.62,4.62,0,0,0-5.91.25c-1.9,1.61-1.9,3.75-1.14,5.84.84,2.3,2,4,5,2.48,2.19-1.11,3.45,0,3.29,2.38a3.72,3.72,0,0,0,.45,2.69c4.65,6.38,5.16,13.51,3.75,21a7.83,7.83,0,0,0,0,1.46c2.69-.26,3-2.88,4.75-4.41a4.61,4.61,0,0,1-1.12,4.22c-2.12,2.65-1.45,5.08.36,7.43,4.65,6,17.47,7.43,23.32,2.55,1.71-1.43,2.45-3.17,1.54-5.33A7.49,7.49,0,0,1,255,83.1c1.17,6,5.69,6.82,9.33,8.75,4.49,2.39,9,4.7,13.55,7,3.36,1.74,4.94,4.63,5.28,8.29a157.46,157.46,0,0,1-.29,30.16A67.39,67.39,0,0,0,282.8,154c1.38,9.42,7.39,15.65,14.94,20.62,3.06,2,6.33,3.72,9.53,5.51,1.2.67,2.35,1.46,4,.88,1.31-.47,2.3.39,2.81,1.58s.84,2,2.48,1.28c1.42-.57,1.36-1.11,1.05-2.35-.64-2.57.79-4.25,2.85-5.54,7.22-4.54,14-1,14.52,7.69.06.88-.18,1.42.82,1.82,9.17,3.59,16.69,9.81,24.52,15.55.37.27.8.47,1.62.94-.85-5.64-1.67-10.92-2.44-16.2-.71-4.95-.66-4.81,4.15-5.55,22-3.41,44.15-3.53,66.31-2.82,10.79.34,21.41,2.21,31.43,6.65,2.43,1.08,3.51,2.08,2.45,5-4.48,12.31-8.77,24.7-13,37.09-3.12,9-6.26,18.09-9.05,27.24-1.15,3.76-2.79,6.66-6.69,7.81a2.62,2.62,0,0,0-1.95,2.22c-3.13,13.87-11.63,24.41-21.32,34.19-3.17,3.19-6.52,6.21-9.78,9.31-.85.81-1.83,1.46-.91,3,.81,1.32,1.69,1.89,3.18,1.41,3-1,6.07-2,9.12-2.89a111.38,111.38,0,0,1,39-4.41c1.26.07,2.92-.38,3.58.95.75,1.55-.83,2.53-1.65,3.61s-1.52,1.8-2.47,2.92a84.17,84.17,0,0,1,15.08,2.65c37.89,10.64,63.55,34.78,75.73,71.91,13.77,42,3.5,79.37-25.8,111.7a98.7,98.7,0,0,1-52.25,30.54c-50.43,11.42-106.25-17-123.15-72.29-10.91-35.66-6.41-69.27,14.67-100.3a90.27,90.27,0,0,1,24.52-24.45c2-1.33,2.91-2.51,2.09-5.13-2.73-8.76-3.31-17.87-3.59-26.92-1.66-.43-2.16.76-2.85,1.44-28.88,28.61-58,57-86.49,86-3.05,3.1-3,3.33.72,5.61,2.72,1.66,5.49,3.26,8.19,4.95,2.54,1.58,4.61,3.73,4.2,6.87s-3.32,4-6,4.83c-2.43.75-4.95.26-7.41.59-.1.22-.29.43-.25.59,2.16,8.15.36,10.41-8,10-8.79-.4-10.11.72-11.26,9.52-.32,2.46-.56,4.94-.94,7.39-1.84,11.75-9.31,18.93-21.18,19.81a138.94,138.94,0,0,1-39.61-2.21c-1.62-.35-3.42-.54-4.73-1.41-2.18-1.45.68-2.86.46-4.23-1.16-7.1,3.9-10,8.62-13.17.78-.53,1.6-1,2.38-1.54.17-.11.23-.4.42-.77-2.78-1.14-5.75-1.2-8.61-1.64-1.67-.26-1.57,1.45-1.79,2.51a101,101,0,0,1-7.74,23.87C180.62,492,153.59,512,116.54,517.37c-34.09,5-63.13-6-87.26-30.59C-4.84,452.05-9,397.37,16.07,356.07c14.2-23.41,34.4-39.06,61.12-45.94C77.85,310,78.49,309.69,79.14,309.46Zm324,8.73c-1.73-.38-2.47-1.65-2.91-3.22a48.87,48.87,0,0,0-3.82-9.15c-2.81-5.49-3.73-5.88-9.78-5-2.74.39-4.33,1.24-3.78,4.45.58,3.37.58,6.84,1.2,10.2,5.07,27.44,15.55,52.77,30.25,76.4a237.74,237.74,0,0,0,14.89,21.22c2,2.6,4.38,1.22,6.17.2,2.31-1.32.22-2.78-.65-4a247.57,247.57,0,0,1-40-91.73c-1-4.57-2.17-9.27-1-14.1,1.37,4.14,2.39,8.33,3.46,12.52,1.28,5,1.4,5,5.89,2.19a27.16,27.16,0,0,0,2.72-.72,95.39,95.39,0,0,1,33.28-6.33c4.94,0,8.5-2.8,12.68-4.44a2.81,2.81,0,0,0-1.4-.46c-15.14-1.31-29.67,1.5-43.93,6.3-1.79.61-3.53.86-2,3.44C405,316.85,403.93,317.6,403.18,318.19Zm21.18,12.4c-1.22-1.24-1.84-3.42-4.44-2.16-1.89.91-4.09,1.2-6,2.11-1,.5.13,1.43.39,2.08,1.15,2.84,2.45,5.63,3.64,8.46.36.85.76,2-.33,2.51s-1.69-.64-2.09-1.42a50.94,50.94,0,0,1-3.19-9c-.21-.7-.27-2.14-1.2-1.82-2.77,1-5.69,1.91-8,3.61-1.26.92.31,3,.79,4.55,7.83,24.91,20.6,47.42,33.95,69.65,1.91,3.17,4.71,1,7,1.5,1.74.34,1.63-1.89,1.92-3.18a27.37,27.37,0,0,0,.44-3.51c.64-7.07,1.2-14.14,1.89-21.21a530.65,530.65,0,0,1,7.35-52.67c.27-1.33.63-2.88-1.61-3.19-2-.27-2.85.46-3.09,2.36-.13,1.06.2,2.8-1.64,2.48-1.49-.26-1.44-1.7-1.08-2.9.46-1.53.79-2.89-1.58-2.68-1.67.14-4.15-1-3.83,2.36.08.82,0,1.65,0,2.71-1.29-1.8,1.54-5.22-2.74-5.19a127.91,127.91,0,0,0-14.5,1.09c-2.31.29-3.15,1.29-2.14,3.51Zm8.31,94.77c-2.33-2.3-3.89-1.54-5.18,1.15a36.64,36.64,0,0,1-2.58,4l.4.4,7.42-5.7c-.44,3.23-3.19,4.48-5.37,6.19-2.69,2.1-5.7,3.76-7.64,6.77a370.69,370.69,0,0,0-29.15,54.4c-.23.54-.45,1.09-.71,1.62s-.73,1.38-1.58,1c-.67-.34-.33-1-.12-1.56.35-.89.7-1.77,1.07-2.64a318.64,318.64,0,0,1,22.07-42.89c1.46-2.41,2.95-4.81,4.43-7.22l-.44-.33-27,20.92A3.23,3.23,0,0,1,389.6,459c7.45-5.86,14.77-11.89,22.43-17.47a49.15,49.15,0,0,0,16.15-19.92l-62.56,20.56-.28-.87,57-19.25c-22.92-4.73-46.17-3.38-69.35-6.72,2.84-1.08,5.2.27,7.63.38,22.21,1,44.57.22,66.49,5.13.63.14,1.42.68,1.68-.44.16-.69.26-1.48-.4-2A20.5,20.5,0,0,0,426,417q-21.45-11.87-43.86-21.8L372,390.64c16.63,5.59,32.34,13.24,48.18,20.81l-31.27-37.89.8-.68,30,35.42a262,262,0,0,1-31-61.79c-.78-2.24-1.56-2.16-3.15-.83a88,88,0,0,0-13.19,12.91c-22.55,28.76-28.27,60.7-16.37,95.21,12.74,36.95,44.65,60.4,81.87,61.5,3.59.1,4-1,3.73-4.15-1.82-19.82-2.71-39.71-4.35-59.53C436.43,442.82,439.24,433.2,432.67,425.36ZM109.4,392.83c-2.71-5.83-4.09-12-5.63-18.19-2-8.13-2.94-16.63-6.33-24.33-3.81-8.65-8.47-16.92-12.64-25.42-1-2-1.87-2.41-4.09-1.82C68,326.46,56.5,332.36,47,341.27c-27.18,25.49-36.37,57.07-28.37,93.06,6.65,29.89,24.72,51.5,53.14,63.24,24.71,10.2,49.23,7.47,72.66-4.8,18.83-9.85,31.71-25.19,39.62-44.81.56-1.4,1.85-2.9-1.36-3.16-12.28-1-24.53-2.31-36.85-2.83-4.14-.17-8.28-.42-12.41-.67-.9-.06-2.25.05-2.23-1.16,0-1.43,1.44-1.3,2.48-1.28,1.77,0,3.54.18,5.31.25,12.31.44,24.65.64,36.86,2.41,10.63,1.54,10.61,1.7,13-8.69.05-.23.12-.46.18-.69.63-2.18-.12-3.2-2.46-3.53-24.83-3.51-49.65-7.12-74.48-10.62-3.65-.51-7.1-1.05-11,.75-5.08,2.37-10.66-2.35-10.46-8a6.39,6.39,0,0,0,0-2.43c-1.72-5.15-.38-8.35,4.93-10,3.3-1,3.38-2.45,2.51-5.33-5-16.29-9.75-32.64-14.56-49-1.39-4.71-2.67-9.45-4-14.18a43.36,43.36,0,0,1,3.8,9.45q8.13,27.19,16.22,54.4c.32,1.06.13,2.75,1.62,2.81,3,.12,6-1.13,8.67-2.18,2.85-1.13,4.87-4.35,7.22-6.69.64-.63,1.46-1.15.19-2.17-3.53-2.81-5.41-6.84-7.44-10.71s-4.08-8.1-6.11-12.16C105.55,372.72,108.29,382.6,109.4,392.83Zm373-45.46.8.43c-.66,1.17-1.29,2.36-2,3.52-11.11,18.45-22.07,37-31.53,56.36-1.21,2.48-2,4.71.48,7,1.19,1.1,1.63,2.83,2,4.48,1.06,4.78,2.47,5.93,7.31,6.41,23.38,2.34,46.81,2.6,70.27,2.08,2.92-.07,3.76-.92,3.82-3.81a94.3,94.3,0,0,0-5.16-34.21c-11.68-32.27-33.74-53.25-67.36-61.59-2.5-.62-3.41-.49-3.74,2.49-1.86,16.34-4.08,32.63-6,49-.9,7.64-1.44,15.31-2.14,23C459.64,383.64,469.74,364.73,482.4,347.37ZM258.25,225c3.11,5.25,9.22,10,14,11.43,12.3,3.6,24.3,7.92,35.29,14.68,6.26,3.86,7.62,7.41,5.07,14.31-2.22,6-4.79,11.84-7.11,17.79-.34.85-1.41,1.73-.42,2.95l56-30.92a20.71,20.71,0,0,1-1.45-2.13,8.73,8.73,0,0,1-.9-2.3c-2.13-10-1.54-19.69,4.77-28.15,2.64-3.54,1.05-6.68.57-10.05-.11-.73-.65-.93-1.28-.94-3.07,0-6.07-1.1-9.19-.36-4.47,1-9.21.78-13.55.42a107.31,107.31,0,0,1-39.28-11.28c-.67-.34-1.22-1.2-2.2-.46-3.68,2.76-8.22,3.52-12.36,5.22-3.12,1.28-6.11,2.71-9.88,1.63-3-.85-5.44,2-5.36,5.07.09,3.56,0,7.11.12,10.67.06,2.29-.92,3.29-3.19,3.11C264.84,225.49,261.78,225.28,258.25,225ZM450.33,428.34c.24.79.48,1.58.71,2.37a443.87,443.87,0,0,1,11.62,48.94c1.73,9.66,3.28,19.35,4.11,29.13.2,2.36.89,3.07,3.21,2.08,2.71-1.15,5.62-1.86,8.3-3.08,33-15.11,50.15-41.47,54.78-76.81.22-1.6-.13-2.17-1.78-2-2.35.19-4.72.3-7.09.32-23.69.22-47.36.06-70.88-3.33C451.26,425.63,450.44,426.42,450.33,428.34ZM212.9,116.65c.47.75.58.85.58,1,.07,2.6.1,5.2.17,7.8.4,15.53,6.62,27.84,19.83,36.44a101.44,101.44,0,0,0,13.68,7.49c.89.4,2,1.48,2.88.56s.16-2,0-3.06c-2.14-10.15-6.19-19.58-10.68-28.87s-9.2-18.67-11.36-29c-1.35-6.46-1.37-12.93-1.14-19.45,0-.74.51-1.75-.54-2.18-.81-.33-1.27.29-1.67.92-.84,1.31-1.86,1.38-2.9.27a4.28,4.28,0,0,0-3.61-1.09,96.28,96.28,0,0,0-10.63.6c-7.85,1.21-13.5,5.33-16.19,13.1A66.37,66.37,0,0,0,188,120c-.7,15.62,3.62,30.12,9.69,44.33,4.33,10.12,12.1,16.08,21.77,20.17,10.64,4.5,22.13,5.72,33.21,8.5,1.8.45,2.66-.59,3.31-1.94,1.43-3,2.61-6.11,4.27-9s.81-3.72-2.08-4.4c-12.2-2.87-23.19-8.28-32.35-16.9C213.12,148.84,208.64,134.34,212.9,116.65ZM154.11,236.11c1.38.14,2.29-.74,3.29-1.28,19-10.26,39.2-13.45,60.48-10.68,7.4,1,14.79,2,22.29,1.62,2.31-.11,2.83-.67,2.65-3.14-.59-8-.44-16.22,2-23.91,1.13-3.53.31-3.69-2.54-4.27a107.47,107.47,0,0,1-27.7-9.7c-13.45-6.87-22.38-17.2-25.63-32.15-.9-4.17-1.92-8.32-3-12.94-3.82,19.87-9.59,38.58-18.74,56.12-5.5,10.54-9.35,21.66-12.55,33C154,231.16,153.36,233.59,154.11,236.11Zm117.94,145c1.78.34,3.18.22,4,.85,2,1.49,1.88,1.66,3.2.06,14.21-17.2,29.86-33,46.13-48.25,15.9-14.89,32-29.62,48.05-44.32,1.65-1.52,2-2.78,1.28-4.86-1.73-4.9-3.39-9.84-4.72-14.86-.63-2.36-1.24-2.55-3.24-1.33-17.64,10.69-36.14,19.72-54.9,28.25-2.25,1-3.66,1.83-1.6,4.41a8.1,8.1,0,0,1,1.4,5.41c-.16,4.26-1.81,8-3.84,11.66-10.25,18.39-21,36.5-30.65,55.22C275.82,376,274.62,378.7,272.05,381.15Zm113-44.85a88.61,88.61,0,0,0-20.64,19.62c-21.32,29-27,61.06-17.35,95.56,15.69,56.32,79.48,92.33,141.23,60,38.54-20.16,59-64,51.63-107.65-8.23-48.46-52.53-91.2-107.71-85.61a100.08,100.08,0,0,0-30,8.19c-2.21,1-2,2.26-1.25,3.95,1,2.38,2.18.36,3,0a87.52,87.52,0,0,1,52.72-6.45C517.57,335.11,548.06,394.23,534,445c-11.1,40-37,66.2-78.71,73.12-32.52,5.4-60.61-5.7-82.92-29.88C355.14,469.65,347.18,447,347,421.79c-.21-32.06,11.46-58.86,36.9-79C386.38,340.81,387,339.16,385.08,336.3ZM102.25,506.94c-1.66,0-3.32.1-5,0-25.77-1.87-46.58-13.46-63-32.94-14.19-16.8-21-36.54-21.51-58.48-.61-26.46,7.44-49.89,25-69.79a84,84,0,0,1,41-25.61c1.31-.37,4-.08,3-2.76-.86-2.3-2.72-.47-3.89-.18a81.52,81.52,0,0,0-20,8C2.68,355.3-10.12,433.8,32.55,479.93,57.33,506.72,88.12,517,123.37,509c40.48-9.12,65.37-35.24,74.52-75.94.29-1.26,1.4-2.9-1.16-3.1-1.83-.14-3.8-1.23-4.27,2.17a72.53,72.53,0,0,1-4.28,15.35A92.07,92.07,0,0,1,102.25,506.94Zm206.3-320.89c-.56-1.71-2-1.91-3.09-2.47a114.06,114.06,0,0,1-14.15-8.81c-9.85-7.18-13.05-17.21-12.72-28.9.37-13.13,1.88-26.23.91-39.39-.2-2.65-.72-5-3.33-6.18-4.26-1.86-7.89-4.76-11.93-7-1.48-.81-2.88-1.95-4.93-1.89a238.41,238.41,0,0,1,1.08,41c-.75,12.05-1.92,24.07-2.76,36.11-.39,5.56-.24,5.57,5.45,6.63,3.77.71,4.17,1.69,1.81,4.64a5,5,0,0,0,3.47.86c-2.59-11.71-1.66-23.53-1.69-35.3a118.39,118.39,0,0,1,4.81-35,5.57,5.57,0,0,1,.36,2.48c-.08,1.77-.14,3.55-.3,5.32-1.64,18.06-2.53,36.13-1.26,54.26.09,1.3,0,2.73,1,3.7,4.11,4.05,8.89,7.2,14.75,7.52,3.46.19,6.19,1,8.47,3.56.6.66,1,2,2.1,1.6C300.42,187.29,304.7,187.63,308.55,186.05ZM207.08,412.74a48.63,48.63,0,0,1-.05,6.39c-.36,2.66.53,3.83,3.21,4.14,3.88.46,7.71,1.24,11.57,1.85,3.63.57,4,.2,3.1-3.41-7.76-32.43-15.42-64.89-22.13-97.56-.54-2.61-1.09-3-3.14-1.16q-8.89,8.19-18,16.18c-1.64,1.43-1.21,2.29,0,3.71A106.22,106.22,0,0,1,207.08,412.74ZM446.48,515.3a151.82,151.82,0,0,0,16.38-2.39c2.75-.5,3.28-1.73,2.88-4.3-4-25.85-8.77-51.54-15.39-76.87-.61-2.34-.88-4-4-2.51a9.51,9.51,0,0,1-6.64.32c-2.83-.78-3.23.52-2.93,2.93.56,4.34,1.06,8.69,1.39,13.06,1.64,21.85,3.28,43.7,4.76,65.56C443.17,514.27,443.73,516.2,446.48,515.3ZM381,255.9c.34,1.46.49,2.39.76,3.29,3,10.19,6.13,20.37,9.09,30.59,1.44,5,3,9.78,6.52,13.87,1.46,1.72,2,1.6,3.43.3,6.94-6.47,13.7-13.13,19.4-20.73,4.61-6.15,8.7-12.64,11.33-20.54C414,264.93,397.54,261.64,381,255.9ZM228.66,94a81.83,81.83,0,0,0,7.86,31.82c4.87,10.51,10.62,20.62,14,31.76.84,2.74,1.65,5.49,2.48,8.24a590.25,590.25,0,0,0,5-71.61C249.43,102.39,240.78,102.21,228.66,94ZM215.5,286.32c-6.67.33-6.45.31-5.86,6.51,1.07,11.32,3.67,22.34,5.94,33.43.46,2.24.84,2.73,3.06,1.51,6.94-3.79,14-7.33,21.05-10.94,3.46-1.78,6.93-3.57,10.45-5.22,1.43-.67,1.69-1.84,2-3.12.33-1.67-1.25-1.48-2-1.91a266.08,266.08,0,0,1-29.61-18.79C218.82,286.6,217.26,285.79,215.5,286.32Zm53.29,133.81c-5.2-.25-9.64-.47-14.08-.67a1.65,1.65,0,0,0-1,.24c-3.44,2.93-7.87,3.63-11.9,5.19-1.73.67-2.75,1.26-2.85,3.35-.12,2.56-1,5.05-3.93,5.69a6,6,0,0,1-6.69-3c-1.67-2.92-3.83-3.49-7-3.92-13.57-1.85-27.05-4.31-40.59-6.4-23.82-3.67-47.57-7.81-71.59-10.05-3.93-.36-1.89,2.79-2.72,4.13-1.16,1.9,1.09,1.44,2,1.55,8.93,1,17.87,1.85,26.79,2.93q32,3.92,63.84,9.17c10.09,1.68,20.41,2.4,29.92,6.94,4.33,2.07,9.16,2,13.91.78A48,48,0,0,0,259.34,428C262.44,425.76,265.72,423.68,268.79,420.13Zm106.72-131c-.66.58-1.14.91-1.53,1.33-15.37,16.62-32.09,31.87-48.41,47.52-14.95,14.36-29.71,28.88-43,44.83-2.05,2.45-.27,3.34.75,4.63,1.55,2,2.35,0,3.25-.87C316,357.65,344.39,327.81,374,299.14,378.18,295.1,378.15,295.06,375.51,289.08ZM226.36,379.37c-.11-.78,0-1.34-.25-1.69-3.2-4.73-3.82-10.36-5.37-15.63a452.6,452.6,0,0,1-14.5-69.6c-.8-6.2-.82-6.05-5.53-7-2.53-.53-2.77,0-2.29,2.39,2.6,13.33,5.75,26.53,8.82,39.75,5.91,25.41,10,51.19,16.38,76.5,2,8,4.31,15.95,6.59,23.89.61,2.13,2,4.2,4.49,3.56,2.35-.6,1.47-3,1.21-4.6-1.11-6.75-2.39-13.48-3.69-20.2-.28-1.43-.57-2.71-2.58-3.27-5.51-1.53-6.2-3.14-6-9.07A47.78,47.78,0,0,1,226.36,379.37ZM103.8,408.23c-.4-2.59,0-4.46,3.07-4.29,1.12.06,1.8-1,2.57-1.75q44.51-40.57,89-81.13c2.05-1.87,3.18-3.55,2.07-6.38-.62-1.59-.18-4.38-1.43-4.8-1.75-.6-3.07,1.72-4.36,3-21.59,21.47-43,43.09-64.74,64.42-9.93,9.75-18.86,20.58-30.46,28.95Zm8.77-5.6c6.26.33,8.73,1.46,9.21,5.05.34,2.61,1.55,2.75,3.62,3,20.49,2.85,41,5.83,61.45,8.72,1.39.19,3.39,1.72,4-1.09.48-2.29.69-4.07-2.47-5.11-13.23-4.34-26.36-9-39.52-13.6a10.5,10.5,0,0,0-4.16-.69c-9.68.68-19.36,1.3-29,1.94C114.45,401,113.27,401,112.57,402.63Zm154.16,23.1c-2.1,1.58-3.65,2.8-5.26,3.93-8.28,5.8-17,10.72-27.54,9.28-3.72-.5-6.38.2-9,2.5-1.16,1-2.47,1.83-3.71,2.74-.79.57-1.46,1.14-1.28,2.31.5,3.22-1.83,3.83-4.14,4a52.54,52.54,0,0,1-8.13,0c-1.37-.1-3-.46-3.16,1.17-.25,2,1.77,1.42,2.83,1.49a334.24,334.24,0,0,0,36.91.81c7-.31,13.77-1.47,17.88-8.19C265.76,439.79,266.19,433.11,266.73,425.73Zm9.44-39.79c-3.69-2.66-7.11-2.57-10.05.36-1,1-1.63.79-2.34.19-1.11-.94-.23-1.83.54-2.26,1.59-.91,3.32-1.58,5.15-2.41-4.6-3.73-9.55-5.26-15.17-2.9-3.87,1.62-7,4.43-10.11,7.12-5.12,4.41-9.61,4.09-14.11-1-.67-.76-.9-1.95-2.12-2.33-1.26,2.81-.91,5.76-1.1,8.65-.15,2.19.46,3,2.86,3.16,14.16.94,28.3,2.17,42.46,3.17,6.61.46,13.24.64,19.86.89,1,0,2.48.42,2.9-.67.49-1.3-1.11-1.58-1.91-2.09-3.8-2.39-7.65-4.7-11.48-7-2.36-1.44-4.73-1-7.12-.08-.85.33-1.49,2.38-2.4,1s.8-2.15,2-2.75C274.58,386.65,275.2,386.39,276.17,385.94ZM299,300l3.92-1.61c5.37-2.23,10.21-5.52,15.46-7.93,16.58-7.61,32.38-16.66,48.31-25.47,1.08-.6,1.69-1.2,1.41-2.48-.34-1.62-.65-3.24-.92-4.87-.42-2.49-1.9-2.84-3.85-1.79-1.66.9-3.19,2-4.79,3-16.6,10.53-34.35,19-51.33,28.92C302.52,290.52,300.53,294.37,299,300Zm-131.78,8.18c-6.82-4.85-14.2-7.89-22.45-8.13-25.24-.71-50.47.66-75.71.7h-.71c-2.56,0-2.37,1.56-1.57,3.08a4.45,4.45,0,0,0,3.52,2.14,44.8,44.8,0,0,0,7,.72c9.24-.11,18.48-.28,27.71-.1C125.8,307,146.51,307.61,167.24,308.15Zm-82-16v.7c-14,0-28,0-41.93,0-1.27,0-3.28-.38-3.11,1.61.13,1.55.75,3.36,3.38,3a89.3,89.3,0,0,1,11-.69c27.72-.42,55.44-1.18,83.16-.74a64.12,64.12,0,0,1,13.75,1.34c12.07,2.8,22.13,10,33.18,15.06a2.44,2.44,0,0,1,1.14,1.25c.33.83.06,2.17,1.41,2a2.84,2.84,0,0,0,1.87-1.47c.58-1.32-.89-1.68-1.54-2.42-1.57-1.79-4.2-1.05-6-2.7a38.65,38.65,0,0,0-7.05-4.74c-15.21-8.64-31.93-11.56-49.08-12.14C112.06,291.81,98.65,292.17,85.27,292.17ZM132,310.6c-.35-.43-.25-.17-.08-.12,14.22,4.33,27.15,11,38.28,21,1.3,1.17,2,.54,2.9-.37,3.62-3.58,7.23-7.17,11-10.62,1.33-1.23,1.31-2,.28-3.46-3-4.27-7.94-5.1-12.23-7.06a1.42,1.42,0,0,0-1,.12c-2,1-4.17.55-6.29.54C153.68,310.58,142.58,310.6,132,310.6ZM227.19,372c3.57-16.63,13.75-30.53,20.12-47.07-9.87,4.48-18.66,8.49-27.47,12.46-1.47.66-1.32,1.84-1,3C221.31,351,223.76,361.54,227.19,372Zm52.34,35.16c6.46-.18,11.92.28,17.33-.67,2.15-.38,4.08-1,3.83-3.67-.22-2.48-2.91-4.14-5.5-3.53a13.91,13.91,0,0,1-4.15.72c-9.57-.62-19.15-1.13-28.71-1.82-11-.78-21.92-2.07-32.94-2.31-1.31,0-3.12-.47-3.25,1.7-.12,1.85,1,2.67,2.77,3.08A225.51,225.51,0,0,0,279.53,407.2Zm.82-203.2c4.45-1.64,9.65-3.53,14.83-5.49,1-.38,1.26-1.23,1-2.32-.89-4.32-4.75-10.58-11.12-9.84-6,.69-11.44-.82-16.82-3-3-1.2-5-.88-5.71,2.67a11.37,11.37,0,0,1-.76,2c-.72,1.74-2.3,3.66-2,5.18.47,2.23,3.33,1,5.08,1.74,4.29,1.72,7.42,5,11.18,7.43C277.15,203,278.06,204.09,280.35,204Zm20.23-6.49c.15.34.17.49.25.54,12.6,7.49,27,8.71,40.91,11.77,1.72.37,3.36-1.37,4.16-2.9.65-1.25-1-1.93-1.81-2.66a43.88,43.88,0,0,0-23.46-11.61c-1-.16-2.69-.67-2.94.31-.88,3.51-3.71,2.72-6,3.07C308,196.61,304.34,197,300.58,197.51ZM200,408.29a100.81,100.81,0,0,0-23.8-61c-1-1.15-1.62-2.16-3.31-.66s-1,2.18,0,3.41a90.41,90.41,0,0,1,13.39,22.06,96.79,96.79,0,0,1,8.21,37.14c.08,3.53,1.71,5.55,4.29,4.86s.66-3.19,1.17-4.78A3.75,3.75,0,0,0,200,408.29ZM374.94,253.75c-2.36.12-4.17,1.05-3.22,3.72,4.14,11.72,5.53,24.14,9.27,36,1.56,4.93,1.48,4.86,6.3,4,2.31-.43,3.13-1.11,2.36-3.69-3.71-12.31-7.23-24.68-10.76-37C378.3,254.58,376.87,253.93,374.94,253.75ZM253.4,208.7h0c0,3.08-.07,6.15,0,9.22.05,1.26.22,2.62,2,2.85,3.51.44,7,1,10.51,1.49,1.26.17,2-.26,2-1.7a91.23,91.23,0,0,0-.78-14.87c-.21-1.55-1.94-2.94-.87-4.63s0-2.09-1.05-2.63-2.36-1.07-3.56-1.57c-5.36-2.21-8.2-.37-8.36,5.46C253.35,204.45,253.4,206.58,253.4,208.7Zm66.26-23.31a4.16,4.16,0,0,0-1.06,0c-1.36.38-3.75-.82-3.67,1.82.07,2.39,1,4.29,4.18,3.78a19.67,19.67,0,0,1,7.39.43c8,1.78,14.6,6,20.32,11.64,4.1,4,9.1,5.25,14.52,5.57.67,0,1.81.58,2-.71a2,2,0,0,0-1-2.12c-6.62-3.68-12.25-8.82-18.72-12.73C336.23,188.63,328.53,185.19,319.66,185.39Zm-216,128.3c-6.41.17-12.8.33-19.07,1.75-1,.22-2.33.11-2,1.77.26,1.44,1.23,1.43,2.43,1.2a86.62,86.62,0,0,1,8.74-1.47c25.66-2.17,48.39,5,68.08,21.63,1.14,1,2.16,2.9,4,.71s-.5-2.67-1.45-3.47C146.84,321.08,126.55,313.82,103.7,313.69ZM252,371.14c-8.07.44-15.35,2.29-20.69,8.73-.81,1-1.42,1.68-.39,3a8,8,0,0,0,10.66,1.83c3.76-2.64,7.22-5.82,11.56-7.47,2.7-1,2.3-3.31,2.18-5C255.22,370.22,253.05,371.58,252,371.14Zm-1,47c-2.57-2.12-2.58-4.77-2.14-7.57.36-2.37-.44-3.8-3.08-4.11a62.66,62.66,0,0,1-8.71-1.6c-2.34-.62-3-.06-2.67,2.3.8,6,2.59,11.72,4.25,17.68A88.79,88.79,0,0,0,251,418.15Zm-.65-104.65c-2.29,1.28-4.22,2.39-6.18,3.44-8.32,4.48-16.61,9-25,13.36-2.66,1.37-2.12,3.23-1.19,5s2.24.06,3.16-.39c7.76-3.76,15.34-7.94,23.24-11.35C249.05,321.52,249.8,318,250.35,313.5Zm115.54-90.35c-6.35,8.62-5.55,17.72-4.12,26.9a2.14,2.14,0,0,0,2.16,1.9c4.63.54,7.2-1.88,6.37-6.47C369,238.21,367.44,231,365.89,223.15ZM260,233.21c-1.77-2.78-3.43-4.86-3.44-7.61,0-1.17-.86-1.22-1.7-1.34-3.79-.55-4.93-3-5-6.53-.18-6.41,0-12.77,2.08-18.92.39-1.17.57-1.9-1-2.29-1.37-.34-2.27-.41-2.62,1.19a16.19,16.19,0,0,0-.64,2.76c-.26,7-1.33,13.95-.63,20.9.37,3.62,0,6.24-4.53,7.43ZM226,437.21c-2.51-1.21-4.79-3.51-6.77-2.57-4.58,2.16-9.77,3.87-12.25,9-.54,1.1-1.79,2.39-.68,3.53s2.76.59,4,0A75.75,75.75,0,0,0,226,437.21ZM116,399.06c8.3-.89,16.48-1.2,24.64-2.13-4.64-2.14-9.31-4-14-5.88a2.29,2.29,0,0,0-2.57.67ZM98.68,417c2.17,0,4.11-.74,5.09-2.65,1.07-2.1-1.77-1.5-2.34-2.76-.76-1.66-1.84-3.41-4.3-2.78a.8.8,0,0,1-1-.81c.42-2.7-1.29-.77-1.59-.59-2.09,1.22-2.25,3.34-1.66,5.3A5.45,5.45,0,0,0,98.68,417ZM312,186.94c-4.05,3.66-9.9,1.58-14.5,3.7,2.19,3.89,2.2,4,3,3.93,4.61-.48,9.26-.65,13.84-1.68C313.47,190.62,312.71,188.66,312,186.94ZM180.53,283.63a117.09,117.09,0,0,1-13.78-1.7c-.78-.12-2.23-1.37-2.36.63-.08,1.2.09,3.22,1.48,3.13,3-.21,4.39,1.77,6.19,3.42,1.31,1.2,3,1.92,4.12-.13A21.45,21.45,0,0,1,180.53,283.63ZM91.61,406.08c6.27-1.4,11.57-3.27,15.39-9C101.47,400,93.92,398,91.61,406.08ZM435.88,189c-3.2,6.27-11.94,41.19-11.31,45.72C427.86,218.61,431.92,203.79,435.88,189Zm-272,70.49a119,119,0,0,0,33.7,3.78C186.34,262.23,175.17,260.45,163.91,259.46Zm91.46,157c2-.18,3.84-.9,4-3.15a3.37,3.37,0,0,0-3.39-3.77c-2.45,0-3.91,1.7-4,4.07C251.86,415.71,253.52,416.3,255.37,416.49Zm-60.92,1.45c-.81,3.39,1.36,3.21,3.26,3.5,2.24.34,2.06-1.09,2.24-2.57.42-3.47-2.47-3.05-4.22-3.34C193.59,415.17,194.85,417.37,194.45,417.94Zm240.49,5.28c2.31.26,3.55-.75,3.56-2.43a3.35,3.35,0,0,0-3.58-3.52c-2.85,0-.29,1.8-.7,2.67-.19.41-.09,1-.34,1.32C432.19,423.59,434.37,423,434.94,423.22ZM281,415.68c1.16-.6,3.51,1,3.59-1.91.07-2.71-2.17-1.36-3.32-1.89a3.28,3.28,0,0,0-1.39-.22c-.88,0-2.26-.68-2.49.3a5,5,0,0,0,.9,3.29C278.85,416.15,280,415.53,281,415.68Zm45.62-233.75c1.07-.65,3.41,1.37,3.46-1.38.05-2.46-2-2.58-3.89-2.4-1.68.17-4.41.11-4.33,1.93C322,182.67,324.9,181.34,326.65,181.93ZM440.84,415.58c2,1.13,1.4,3.93,4,3.7.67-.06,1.87-.46,1.36-1.55C445.32,416,444,414.79,440.84,415.58ZM275.34,182.91c-1.33-1.7-2.3-3.85-4.8-4.59C268.91,183.28,273.42,181.77,275.34,182.91ZM212,84.75c4.33-.12,4.33-.12,3.5-2.75Z"/><path d="M246.54,39.86a2.08,2.08,0,0,1-2,2c-2.6.46-5,1.42-6.58,3.69-.37.52-.88.89-1.48.56s-.53-1-.46-1.58c.33-3.2,5.3-7.09,8.48-6.74A1.92,1.92,0,0,1,246.54,39.86Z"/><path d="M253.72,68.92c-2.54-.4-4.84-1.35-6-4-.3-.66-.6-1.41,0-2s1.32,0,1.8.51c2.32,2.35,4.72,3,7.42.54a1.42,1.42,0,0,1,2.19.19,1.73,1.73,0,0,1-.19,2.53A7.7,7.7,0,0,1,253.72,68.92Z"/><path d="M258.91,37.23c3.62.18,7.49,4,7.36,6.87,0,.67,0,1.46-.86,1.72a.92.92,0,0,1-1.13-.6c-1.17-2.53-3.54-3.24-5.91-3.95-1.31-.39-2.11-1.17-1.64-2.57A2.17,2.17,0,0,1,258.91,37.23Z"/><path d="M260,54.77c0,2.6-1,4-2.88,4.6-2.26.77-4.17-.1-5.87-1.52a1.44,1.44,0,0,1-.19-1.94c.47-.79,1.15-.58,1.86-.33,1.31.48,2.57,2.38,4,.69,1.06-1.26-.36-2.3-1-3.39-.87-1.47.28-1.64,1.28-1.45A3.35,3.35,0,0,1,260,54.77Z"/><path d="M244.21,46.33c1.07-.08,2,1,2.89,2.14.64.86,1.37,1.87.39,2.84s-1.89.25-2.65-.62c-1.72-1.95-2.77-.91-3.73.83-.3.54-.37,1.57-1.34,1.31s-1.12-1.24-.88-2C239.6,48.43,240.7,46.38,244.21,46.33Z"/><path d="M222.13,52.78c0,1.48-.68,2.39-1.92,2.22-2.14-.29-3.16-2.09-3.67-3.86-.36-1.21,1.08-1.22,2-1.27C220.72,49.78,221.68,51.09,222.13,52.78Z"/><path d="M261.79,46.3a3,3,0,0,1,3,1.89c.36.8.55,1.6-.24,2.25a1.29,1.29,0,0,1-1.88-.19c-.5-.46-.9-1.13-1.74-1-1,.1-2.5,2.28-2.79-.27C258,47.37,259.54,46.3,261.79,46.3Z"/><path d="M414.32,432.22c-15.13,10.25-30.47,20.3-46.7,28.89C382.45,450.34,398.31,441.22,414.32,432.22Z"/><path d="M451.87,412.4a434.24,434.24,0,0,1,65.07-22.08C495.19,397.55,473.51,405,451.87,412.4Z"/><path d="M502,371.1a400.92,400.92,0,0,1-50.55,39.25C468.18,397.12,485.07,384.1,502,371.1Z"/><path d="M515.65,469c-17.48-11.2-34.21-23.45-50.49-36.32l.51-.72,50.58,36.22Z"/><path d="M440.23,408A511.74,511.74,0,0,1,443,334.52C442,359,441,383.45,440.23,408Z"/><path d="M424.31,330.64c3.58,24,7.77,48,12.16,71.86l-1.05.21c-1.22-6-2.51-12.08-3.63-18.14-3-16.28-5.54-32.64-7.75-49.05a9.27,9.27,0,0,1,.3-4.92S424.31,330.64,424.31,330.64Z"/></g></g></g></svg>