<svg xmlns="http://www.w3.org/2000/svg" viewBox="0 0 937.19 54.09"><defs><style>.cls-1{fill:none;stroke:#fff;stroke-linecap:round;stroke-linejoin:round;stroke-width:4px;}</style></defs><title>swirly4-white_1</title><g id="Livello_2" data-name="Livello 2"><g id="Livello_1-2" data-name="Livello 1"><path class="cls-1" d="M2,20c13.82,7.17,88.21,44.59,123.17,15.19,9.13-7.68,19.64-23.34,15.72-28.84-5.42-7.61-40.13,2-40.63,11.8-.68,13.36,62.15,35,120.77,25.69,25.78-4.1,59.58-15.59,58.8-24.38-.86-9.64-43.38-17.28-47.19-9.18-2.8,6,14.63,22.1,30.34,30.4C318.52,70,403.91,28.51,402,18c-1.3-7-43.49-8.5-46.22,0-2.2,6.83,20.12,22.94,41.82,29.72C456.13,66,526.4,21.4,523.51,11c-2.16-7.75-47.68-4.91-49.17,3-1.12,5.93,22.53,15,27.28,16.81,72.73,27.85,168.75-11.41,167.12-20-1.07-5.65-45.25-4.39-46.44,2.06-.9,4.89,22.77,13.66,36.12,17.54,71.27,20.74,151.91-9.3,150.66-20.27C808.28,3,772.7-1.12,770.3,4.89c-2.16,5.42,22.06,20.93,37.73,28.29,18.93,8.89,59.72,22,127.16-.13"/></g></g></svg>