<svg xmlns="http://www.w3.org/2000/svg" viewBox="0 0 396.14 87.08"><defs><style>.cls-1{fill:#fff;}</style></defs><title>swirly2-white</title><g id="Livello_2" data-name="Livello 2"><g id="Livello_1-2" data-name="Livello 1"><g id="uhLC4G.tif"><path class="cls-1" d="M260.48,77.82a103.29,103.29,0,0,0,39.47-10c3.28-1.55,3.37-2.56,1.14-5.18-9.94-11.7-12.42-29.4-6-41.33,5-9.26,16.57-14.41,26.61-11.52,6.6,1.91,9.78,7.09,11.44,13.34,3.38,12.73-1,23.34-9.26,32.8a42.67,42.67,0,0,1-9.61,8.26c-2.86,1.79-2.52,3,.26,4.51,11.41,6,23,5.08,34.58.79,15.18-5.62,25.92-16.48,34.52-29.69,2.82-4.34,5.17-9,7.81-13.45.82-1.38,1.28-4.1,3.5-3s.85,3.46,0,5.09c-6.2,11.92-13.34,23.18-23.61,32.15-12.91,11.27-27.59,17.51-45.09,15.75a35.33,35.33,0,0,1-16.46-5.81,4.89,4.89,0,0,0-5.6-.29c-20.73,10.13-42.52,14-65.42,10.29a79.53,79.53,0,0,1-23.39-7.38,6.18,6.18,0,0,0-6.46.22c-10,5.44-20.39,10-31.65,12.17-20.94,4-39.55.44-53.35-17.41-1.54-2-3.12-2-5.37-1.45-19.48,5.17-38,2.94-55.24-7.75-4.39-2.73-8.63-5.88-11.52-10.34C50,46,47.66,45.05,44.55,44.87,27.08,43.83,13.26,36,2.66,22.23a1.92,1.92,0,0,1-.26-.32c-.91-1.8-3.83-3.76-1.55-5.56,2.65-2.09,3.5,1.41,4.65,2.95,9.24,12.34,21.63,19.36,36.74,21.83,3.14.51,4.14,0,2.93-3.67-3.94-11.74-3.33-23,6.06-32.23,6.76-6.66,18.83-6.93,26-1s8.32,16.54,3,24.92S67.08,42.06,57.73,44.26c-3.27.77-3.24,1.67-1.12,3.76,14.25,14,31.44,19.14,51.07,16.86,2.57-.3,5.08-1.12,7.65-1.4,3.88-.43,4.21-2.12,2.87-5.47-4.08-10.22-3.8-20.35,2-29.88,7.07-11.58,21.62-13.59,29.9-4.33,4.43,4.95,4.93,12.36,1.31,19.56-4.38,8.72-11.81,14.14-20.22,18.47-5.47,2.82-5.47,2.74-1.43,7.06,13.69,14.64,30.57,16.84,49.06,12.37,9.22-2.23,17.84-6.05,26.27-10.36,2.42-1.24,2.59-2,.53-4C194.4,56,192.1,39.05,200.12,27.74c7.35-10.38,24.37-11.95,31.88-2.49,6.22,7.84,5.6,16.79,1.89,25.58-2.79,6.61-7.93,11.34-13.53,15.63-1,.77-2.85,1.08-2.58,2.81.21,1.4,1.86,1.53,2.9,2A89.16,89.16,0,0,0,260.48,77.82Zm34.94-42.28c.08,10.59,3.69,18.62,9.68,25.75,1.59,1.89,2.94,2.33,5.18.76a64.06,64.06,0,0,0,10.13-8.27c7.17-7.63,11.14-16.36,9.46-27.13-1.89-12-12-17.2-22.79-11.44C298.46,19.83,295.7,27.58,295.42,35.54Zm-95.94,7.07c0,6.77,1.87,13,6.29,18.17,5.83,6.87,5.93,6.87,13,1.62a44.05,44.05,0,0,0,6.41-5.7c4.75-5.23,7.61-11.34,7.44-18.52-.27-11.26-10.4-18-21-14.1C204,26.93,199.53,33.75,199.48,42.61ZM65.42,4.14C58.81,4,54.26,6.6,51.08,11.55c-5.59,8.7-5.45,17.75-1.25,26.93.69,1.52,1.55,3,3.65,2.64,10.65-1.85,19.6-6.5,24.53-16.5S76.16,4.21,65.42,4.14Zm54,40.51a33.86,33.86,0,0,0,2.84,13.18c.61,1.34,1.38,3,3.32,2.15,9.8-4.41,18.61-10.09,23-20.42,2.51-5.9,1.15-11.19-2.91-14.55-4.54-3.76-10.53-4.14-16-.66C122.24,29.06,120,36.49,119.46,44.65Z"/></g></g></g></svg>